<mxfile host="app.diagrams.net" modified="2022-03-06T07:56:12.954Z" agent="5.0 (Windows NT 10.0; Win64; x64) AppleWebKit/537.36 (KHTML, like Gecko) Chrome/99.0.4844.51 Safari/537.36" etag="PFXc4-7rp1pGTvrsORqE" version="16.6.5" type="github" pages="2">
  <diagram id="iKRTfIvsgAHTzPborcKI" name="Full">
    <mxGraphModel dx="1422" dy="802" grid="1" gridSize="10" guides="1" tooltips="1" connect="1" arrows="1" fold="1" page="1" pageScale="1" pageWidth="827" pageHeight="1169" math="0" shadow="0">
      <root>
        <mxCell id="0" />
        <mxCell id="1" parent="0" />
        <mxCell id="aC08C6gNYoCpae9THRba-24" style="edgeStyle=orthogonalEdgeStyle;rounded=0;orthogonalLoop=1;jettySize=auto;html=1;exitX=0;exitY=0.5;exitDx=0;exitDy=0;entryX=1;entryY=0.5;entryDx=0;entryDy=0;strokeColor=default;endArrow=none;endFill=0;" edge="1" parent="1" source="kR9M7E9QdsosyzwSM0mt-1" target="aC08C6gNYoCpae9THRba-23">
          <mxGeometry relative="1" as="geometry" />
        </mxCell>
        <mxCell id="aC08C6gNYoCpae9THRba-12" style="edgeStyle=orthogonalEdgeStyle;rounded=0;orthogonalLoop=1;jettySize=auto;html=1;endArrow=none;endFill=0;" edge="1" parent="1" source="kR9M7E9QdsosyzwSM0mt-1" target="aC08C6gNYoCpae9THRba-2">
          <mxGeometry relative="1" as="geometry" />
        </mxCell>
        <mxCell id="aC08C6gNYoCpae9THRba-13" style="edgeStyle=orthogonalEdgeStyle;rounded=0;orthogonalLoop=1;jettySize=auto;html=1;entryX=0.5;entryY=0;entryDx=0;entryDy=0;endArrow=none;endFill=0;" edge="1" parent="1" source="kR9M7E9QdsosyzwSM0mt-1" target="aC08C6gNYoCpae9THRba-1">
          <mxGeometry relative="1" as="geometry">
            <mxPoint x="450" y="460" as="targetPoint" />
          </mxGeometry>
        </mxCell>
        <object label="" id="aC08C6gNYoCpae9THRba-15">
          <mxCell style="edgeStyle=orthogonalEdgeStyle;rounded=0;orthogonalLoop=1;jettySize=auto;html=1;exitX=1;exitY=0.5;exitDx=0;exitDy=0;entryX=0;entryY=0.5;entryDx=0;entryDy=0;endArrow=none;endFill=0;" edge="1" parent="1" source="kR9M7E9QdsosyzwSM0mt-1" target="aC08C6gNYoCpae9THRba-4">
            <mxGeometry relative="1" as="geometry" />
          </mxCell>
        </object>
        <mxCell id="aC08C6gNYoCpae9THRba-17" style="edgeStyle=orthogonalEdgeStyle;rounded=0;orthogonalLoop=1;jettySize=auto;html=1;exitX=0.5;exitY=0;exitDx=0;exitDy=0;endArrow=none;endFill=0;" edge="1" parent="1" source="kR9M7E9QdsosyzwSM0mt-1" target="aC08C6gNYoCpae9THRba-3">
          <mxGeometry relative="1" as="geometry" />
        </mxCell>
        <mxCell id="aC08C6gNYoCpae9THRba-18" style="edgeStyle=orthogonalEdgeStyle;rounded=0;orthogonalLoop=1;jettySize=auto;html=1;exitX=0;exitY=0.5;exitDx=0;exitDy=0;endArrow=none;endFill=0;" edge="1" parent="1" source="kR9M7E9QdsosyzwSM0mt-1" target="aC08C6gNYoCpae9THRba-8">
          <mxGeometry relative="1" as="geometry" />
        </mxCell>
        <mxCell id="aC08C6gNYoCpae9THRba-25" style="edgeStyle=orthogonalEdgeStyle;rounded=0;orthogonalLoop=1;jettySize=auto;html=1;exitX=1;exitY=0.5;exitDx=0;exitDy=0;entryX=0;entryY=0.5;entryDx=0;entryDy=0;endArrow=none;endFill=0;" edge="1" parent="1" source="kR9M7E9QdsosyzwSM0mt-1" target="aC08C6gNYoCpae9THRba-6">
          <mxGeometry relative="1" as="geometry" />
        </mxCell>
        <mxCell id="kR9M7E9QdsosyzwSM0mt-1" value="RK3399" style="rounded=1;whiteSpace=wrap;html=1;fillColor=#e1d5e7;strokeColor=#9673a6;fontStyle=1" parent="1" vertex="1">
          <mxGeometry x="373.5" y="325" width="153" height="100" as="geometry" />
        </mxCell>
        <mxCell id="aC08C6gNYoCpae9THRba-1" value="LORA" style="rounded=1;whiteSpace=wrap;html=1;fillColor=#a20025;strokeColor=#6F0000;fontColor=#ffffff;" vertex="1" parent="1">
          <mxGeometry x="390" y="470" width="120" height="60" as="geometry" />
        </mxCell>
        <mxCell id="aC08C6gNYoCpae9THRba-2" value="5G" style="rounded=1;whiteSpace=wrap;html=1;fillColor=#d80073;strokeColor=#A50040;fontColor=#ffffff;" vertex="1" parent="1">
          <mxGeometry x="600" y="345" width="120" height="60" as="geometry" />
        </mxCell>
        <mxCell id="aC08C6gNYoCpae9THRba-3" value="Ethernet&lt;br&gt;GbE Lan With POE" style="rounded=1;whiteSpace=wrap;html=1;fillColor=#1ba1e2;fontColor=#ffffff;strokeColor=#006EAF;" vertex="1" parent="1">
          <mxGeometry x="390" y="230" width="120" height="60" as="geometry" />
        </mxCell>
        <mxCell id="aC08C6gNYoCpae9THRba-4" value="WIFI&lt;br&gt;2.4G+5G" style="rounded=1;whiteSpace=wrap;html=1;fillColor=#1ba1e2;fontColor=#ffffff;strokeColor=#006EAF;" vertex="1" parent="1">
          <mxGeometry x="600" y="230" width="120" height="60" as="geometry" />
        </mxCell>
        <mxCell id="aC08C6gNYoCpae9THRba-6" value="Sensor&lt;br&gt;温湿度、倾角" style="rounded=1;whiteSpace=wrap;html=1;fillColor=#0050ef;fontColor=#ffffff;strokeColor=#001DBC;" vertex="1" parent="1">
          <mxGeometry x="600" y="470" width="120" height="60" as="geometry" />
        </mxCell>
        <mxCell id="aC08C6gNYoCpae9THRba-22" value="" style="edgeStyle=orthogonalEdgeStyle;rounded=0;orthogonalLoop=1;jettySize=auto;html=1;endArrow=none;endFill=0;" edge="1" parent="1" source="aC08C6gNYoCpae9THRba-8" target="aC08C6gNYoCpae9THRba-21">
          <mxGeometry relative="1" as="geometry" />
        </mxCell>
        <mxCell id="aC08C6gNYoCpae9THRba-8" value="PM" style="rounded=1;whiteSpace=wrap;html=1;fillColor=#008a00;fontColor=#ffffff;strokeColor=#005700;" vertex="1" parent="1">
          <mxGeometry x="170" y="345" width="120" height="60" as="geometry" />
        </mxCell>
        <mxCell id="aC08C6gNYoCpae9THRba-21" value="CELL" style="rounded=1;whiteSpace=wrap;html=1;fillColor=#008a00;fontColor=#ffffff;strokeColor=#005700;" vertex="1" parent="1">
          <mxGeometry x="170" y="470" width="120" height="60" as="geometry" />
        </mxCell>
        <mxCell id="aC08C6gNYoCpae9THRba-23" value="蓝牙5.0" style="rounded=1;whiteSpace=wrap;html=1;fillColor=#1ba1e2;fontColor=#ffffff;strokeColor=#006EAF;" vertex="1" parent="1">
          <mxGeometry x="170" y="230" width="120" height="60" as="geometry" />
        </mxCell>
      </root>
    </mxGraphModel>
  </diagram>
  <diagram id="KRt99qneUdd1r6ccrVmF" name="Light">
    <mxGraphModel dx="1422" dy="802" grid="1" gridSize="10" guides="1" tooltips="1" connect="1" arrows="1" fold="1" page="1" pageScale="1" pageWidth="827" pageHeight="1169" math="0" shadow="0">
      <root>
        <mxCell id="w6mHL5BMN2BuMj6q8qPe-0" />
        <mxCell id="w6mHL5BMN2BuMj6q8qPe-1" parent="w6mHL5BMN2BuMj6q8qPe-0" />
      </root>
    </mxGraphModel>
  </diagram>
</mxfile>
